<svg xmlns="http://www.w3.org/2000/svg" width="1em" height="1em" viewBox="0 0 32 32">
    <g fill="none">
        <path fill="url(#f231id0)" d="M27.962 26.065V6.422c0-1.438-1.336-2.14-2.43-1.125l-4.014 3.952a1 1 0 0 1-.701.288H11.22a1 1 0 0 1-.701-.288L6.505 5.297c-1.094-1.016-2.43-.313-2.43 1.125v19.643c0 2.212 1.76 4.005 3.931 4.005h16.025c2.17 0 3.93-1.793 3.93-4.005" />
        <path fill="url(#f231id1)" d="M27.962 26.065V6.422c0-1.438-1.336-2.14-2.43-1.125l-4.014 3.952a1 1 0 0 1-.701.288H11.22a1 1 0 0 1-.701-.288L6.505 5.297c-1.094-1.016-2.43-.313-2.43 1.125v19.643c0 2.212 1.76 4.005 3.931 4.005h16.025c2.17 0 3.93-1.793 3.93-4.005" />
        <path fill="url(#f231id2)" d="M27.962 26.065V6.422c0-1.438-1.336-2.14-2.43-1.125l-4.014 3.952a1 1 0 0 1-.701.288H11.22a1 1 0 0 1-.701-.288L6.505 5.297c-1.094-1.016-2.43-.313-2.43 1.125v19.643c0 2.212 1.76 4.005 3.931 4.005h16.025c2.17 0 3.93-1.793 3.93-4.005" />
        <path fill="url(#f231id3)" d="M27.962 26.065V6.422c0-1.438-1.336-2.14-2.43-1.125l-4.014 3.952a1 1 0 0 1-.701.288H11.22a1 1 0 0 1-.701-.288L6.505 5.297c-1.094-1.016-2.43-.313-2.43 1.125v19.643c0 2.212 1.76 4.005 3.931 4.005h16.025c2.17 0 3.93-1.793 3.93-4.005" />
        <path fill="url(#f231id4)" d="M27.962 26.065V6.422c0-1.438-1.336-2.14-2.43-1.125l-4.014 3.952a1 1 0 0 1-.701.288H11.22a1 1 0 0 1-.701-.288L6.505 5.297c-1.094-1.016-2.43-.313-2.43 1.125v19.643c0 2.212 1.76 4.005 3.931 4.005h16.025c2.17 0 3.93-1.793 3.93-4.005" />
        <path fill="url(#f231id1f)" d="M27.962 26.065V6.422c0-1.438-1.336-2.14-2.43-1.125l-4.014 3.952a1 1 0 0 1-.701.288H11.22a1 1 0 0 1-.701-.288L6.505 5.297c-1.094-1.016-2.43-.313-2.43 1.125v19.643c0 2.212 1.76 4.005 3.931 4.005h16.025c2.17 0 3.93-1.793 3.93-4.005" />
        <g filter="url(#f231idq)">
            <rect width="2.727" height="3.698" x="5.054" y="21.82" fill="#d67908" rx="1.363" />
        </g>
        <g filter="url(#f231idr)">
            <path fill="url(#f231id5)" d="M20.75 10.2c-2.983.108 5.227 4.954 5.227 4.954l1.125-9.062c.055-.461-.364-.954-1.25-.131L21.84 9.913c-.187.184-.408.25-.702.288c-.15.02-.236-.006-.386 0" />
        </g>
        <path fill="url(#f231id6)" d="m6.133 13.503l2.8-2.6c.32-.3.32-.78 0-1.07L5.918 7.156c-.383-.336-1.175-.226-1.175.607v5.2c0 .834.88 1.02 1.39.54" />
        <g filter="url(#f231ids)">
            <path fill="url(#f231id7)" d="M26.49 5.652a.38.38 0 0 1 .732.142v2.245l-1.417-.687z" />
        </g>
        <g filter="url(#f231idt)">
            <path stroke="#ffdf70" stroke-linecap="round" d="m5.446 5.727l3.375 3.22c.754.718.768 1.918.031 2.655v0" />
        </g>
        <g filter="url(#f231idu)">
            <path fill="url(#f231id8)" d="m14.805 20.65l.065-.015a3 3 0 0 1 1.438.015c.52.098.832.696.392 1.126l-.55.601c-.27.27-.864.27-1.134 0l-.543-.601c-.449-.508-.168-1.016.332-1.126" />
        </g>
        <path fill="url(#f231id1g)" d="m15.227 20.207l.064-.015a3 3 0 0 1 1.438.015c.521.098.832.695.392 1.125l-.55.602c-.27.27-.864.27-1.134 0l-.542-.602c-.45-.508-.168-1.016.332-1.125" />
        <g filter="url(#f231idv)">
            <ellipse cx="16.27" cy="20.741" fill="url(#f231id9)" rx=".762" ry=".274" />
        </g>
        <g filter="url(#f231idw)">
            <path stroke="url(#f231ida)" stroke-linecap="round" stroke-miterlimit="10" stroke-width="1.2" d="m24.785 22.892l3.805-1.812" />
        </g>
        <g filter="url(#f231idx)">
            <path stroke="url(#f231idb)" stroke-linecap="round" stroke-miterlimit="10" stroke-width="1.2" d="m24.785 24.924l1.927 1.365" />
        </g>
        <path stroke="url(#f231idc)" stroke-linecap="round" stroke-miterlimit="10" stroke-width="1.2" d="m25.566 22.54l3.805-1.813" />
        <g filter="url(#f231idy)">
            <path stroke="#ff8485" stroke-linecap="round" stroke-miterlimit="10" stroke-width="0.3" d="m25.566 22.71l3.805-1.812" />
        </g>
        <g filter="url(#f231idz)">
            <ellipse cx="29.606" cy="20.581" fill="#ffdd86" rx=".184" ry=".166" transform="rotate(-22.745 29.606 20.58)" />
        </g>
        <path stroke="url(#f231idd)" stroke-linecap="round" stroke-miterlimit="10" stroke-width="1.2" d="m25.564 24.67l3.801 1.818" />
        <g filter="url(#f231id10)">
            <path stroke="#ff8485" stroke-linecap="round" stroke-miterlimit="10" stroke-width="0.3" d="m25.498 24.55l3.802 1.818" />
        </g>
        <g filter="url(#f231id11)">
            <ellipse cx="29.541" cy="26.368" fill="#ffdd86" rx=".184" ry=".166" transform="rotate(28.298 29.54 26.368)" />
        </g>
        <path stroke="url(#f231ide)" stroke-linecap="round" stroke-miterlimit="10" stroke-width="1.2" d="M6.528 24.681L2.727 26.5" />
        <g filter="url(#f231id12)">
            <path stroke="#ff8485" stroke-linecap="round" stroke-miterlimit="10" stroke-width="0.3" d="m6.593 24.56l-3.801 1.82" />
        </g>
        <g filter="url(#f231id13)">
            <ellipse fill="#ffdd86" rx=".184" ry=".166" transform="scale(-1 1)rotate(-19.477 68.068 31.615)" />
        </g>
        <path stroke="url(#f231idf)" stroke-linecap="round" stroke-miterlimit="10" stroke-width="1.2" d="M6.54 22.524L2.726 20.73" />
        <g filter="url(#f231id14)">
            <path stroke="#ff8485" stroke-linecap="round" stroke-miterlimit="10" stroke-width="0.3" d="M6.674 22.499L2.86 20.705" />
        </g>
        <g filter="url(#f231id15)">
            <ellipse fill="#ffdd86" rx=".184" ry=".166" transform="scale(-1 1)rotate(-70.238 12.624 16.051)" />
        </g>
        <path fill="url(#f231idg)" d="M20.418 23.055c0 2.44-1.982 4.336-4.422 4.336s-4.312-1.943-4.312-4.383c0 0 1.804 2.133 4.312 0c2.352 2.078 4.422.047 4.422.047" />
        <g filter="url(#f231id16)">
            <path fill="url(#f231idh)" d="M19.432 20.468a.77.77 0 0 1-.776-.76v-1.42c0-.417.35-.76.776-.76c.425 0 .775.343.775.76v1.42c0 .43-.35.76-.775.76" />
        </g>
        <path fill="url(#f231idi)" d="M19.97 20.086a.77.77 0 0 1-.775-.76v-1.421c0-.417.35-.76.776-.76c.425 0 .775.343.775.76v1.421c0 .43-.35.76-.775.76" />
        <path fill="url(#f231idj)" d="M19.97 20.086a.77.77 0 0 1-.775-.76v-1.421c0-.417.35-.76.776-.76c.425 0 .775.343.775.76v1.421c0 .43-.35.76-.775.76" />
        <g filter="url(#f231id17)">
            <path fill="url(#f231idk)" d="M11.605 20.468a.77.77 0 0 1-.775-.76v-1.42c0-.417.35-.76.775-.76s.776.343.776.76v1.42c0 .43-.35.76-.776.76" />
        </g>
        <path fill="url(#f231idl)" d="M12.029 20.086a.77.77 0 0 1-.775-.76v-1.421c0-.417.35-.76.775-.76s.775.343.775.76v1.421c0 .43-.35.76-.775.76" />
        <path fill="url(#f231idm)" d="M12.029 20.086a.77.77 0 0 1-.775-.76v-1.421c0-.417.35-.76.775-.76s.775.343.775.76v1.421c0 .43-.35.76-.775.76" />
        <g filter="url(#f231id18)">
            <circle cx="20.207" cy="17.764" r=".236" fill="#775b70" />
        </g>
        <g filter="url(#f231id19)">
            <circle cx="12.265" cy="17.764" r=".236" fill="#775b70" />
        </g>
        <g filter="url(#f231id1a)">
            <path fill="url(#f231idn)" d="M22.102 10.102h4.585v14.186h-4.585z" />
        </g>
        <path fill="#ffb915" d="m25.833 13.503l-2.8-2.6a.716.716 0 0 1 0-1.07l3.015-2.677c.382-.336 1.175-.226 1.175.607v5.2c0 .834-.88 1.02-1.39.54" />
        <path fill="url(#f231ido)" d="m25.833 13.503l-2.8-2.6a.716.716 0 0 1 0-1.07l3.015-2.677c.382-.336 1.175-.226 1.175.607v5.2c0 .834-.88 1.02-1.39.54" />
        <g filter="url(#f231id1b)">
            <path fill="url(#f231id1h)" d="m26.634 7.367l-3.625 3.125l3.546 2.813z" />
        </g>
        <g filter="url(#f231id1c)">
            <path stroke="url(#f231idp)" stroke-linecap="round" stroke-width="0.5" d="m23.727 10.29l2.532 2.733" />
        </g>
        <g filter="url(#f231id1d)">
            <path fill="#feb33e" d="M5.223 7.5v5.907l3.469-3.09z" />
        </g>
        <g filter="url(#f231id1e)">
            <path stroke="#ffe7a3" stroke-linecap="round" stroke-width="0.15" d="M5.223 7.727v5.187" />
        </g>
        <defs>
            <linearGradient id="f231id0" x1="7.964" x2="7.964" y1="1.13" y2="31.07" gradientUnits="userSpaceOnUse">
                <stop offset=".288" stop-color="#f2cc26" />
                <stop offset=".762" stop-color="#e99e20" />
                <stop offset=".993" stop-color="#e3821d" />
                <stop offset="1" stop-color="#e3801d" />
            </linearGradient>
            <linearGradient id="f231id1" x1="8.884" x2="1.259" y1="11.922" y2="11.922" gradientUnits="userSpaceOnUse">
                <stop stop-color="#e99e20" stop-opacity="0" />
                <stop offset=".993" stop-color="#e3821d" />
                <stop offset="1" stop-color="#e3801d" />
            </linearGradient>
            <linearGradient id="f231id2" x1="26.759" x2="30.196" y1="11.922" y2="11.922" gradientUnits="userSpaceOnUse">
                <stop stop-color="#e99e20" stop-opacity="0" />
                <stop offset=".993" stop-color="#e3821d" />
                <stop offset="1" stop-color="#e3801d" />
            </linearGradient>
            <linearGradient id="f231id3" x1="16.02" x2="16.019" y1="-1.844" y2="31.07" gradientUnits="userSpaceOnUse">
                <stop offset=".771" stop-color="#f59639" stop-opacity="0" />
                <stop offset="1" stop-color="#ff63c4" />
            </linearGradient>
            <linearGradient id="f231id4" x1="16.019" x2="16.019" y1="11.133" y2="32.57" gradientUnits="userSpaceOnUse">
                <stop offset=".854" stop-color="#fff" stop-opacity="0" />
                <stop offset=".985" stop-color="#fff" />
            </linearGradient>
            <linearGradient id="f231id5" x1="21.908" x2="28.165" y1="6.852" y2="13.695" gradientUnits="userSpaceOnUse">
                <stop stop-color="#ffa720" />
                <stop offset="1" stop-color="#ffa720" stop-opacity="0" />
            </linearGradient>
            <linearGradient id="f231id6" x1="10.602" x2="4.743" y1="10.617" y2="10.07" gradientUnits="userSpaceOnUse">
                <stop offset=".437" stop-color="#ed8c1b" />
                <stop offset="1" stop-color="#ffb03a" />
            </linearGradient>
            <linearGradient id="f231id7" x1="27.04" x2="26.444" y1="4.961" y2="7.302" gradientUnits="userSpaceOnUse">
                <stop offset=".286" stop-color="#ffe792" />
                <stop offset="1" stop-color="#ffdd65" stop-opacity="0" />
            </linearGradient>
            <linearGradient id="f231id8" x1="15.751" x2="15.079" y1="22.351" y2="23.445" gradientUnits="userSpaceOnUse">
                <stop stop-color="#e3900e" />
                <stop offset="1" stop-color="#ea9d26" stop-opacity="0" />
            </linearGradient>
            <linearGradient id="f231id9" x1="17.204" x2="15.68" y1="20.741" y2="20.741" gradientUnits="userSpaceOnUse">
                <stop stop-color="#fff" stop-opacity="0.9" />
                <stop offset="1" stop-color="#fff" stop-opacity="0" />
            </linearGradient>
            <linearGradient id="f231ida" x1="24.29" x2="28.024" y1="23.236" y2="21.32" gradientUnits="userSpaceOnUse">
                <stop stop-color="#e88105" />
                <stop offset="1" stop-color="#e37d02" stop-opacity="0" />
            </linearGradient>
            <linearGradient id="f231idb" x1="24.29" x2="28.024" y1="24.58" y2="26.495" gradientUnits="userSpaceOnUse">
                <stop offset=".286" stop-color="#de7d07" />
                <stop offset=".818" stop-color="#e37d02" stop-opacity="0" />
            </linearGradient>
            <linearGradient id="f231idc" x1="25.29" x2="29.371" y1="22.945" y2="21.008" gradientUnits="userSpaceOnUse">
                <stop offset=".156" stop-color="#d64a38" />
                <stop offset="1" stop-color="#fb7425" />
            </linearGradient>
            <linearGradient id="f231idd" x1="25.074" x2="29.146" y1="24.71" y2="26.665" gradientUnits="userSpaceOnUse">
                <stop offset=".156" stop-color="#d64a38" />
                <stop offset="1" stop-color="#fb7425" />
            </linearGradient>
            <linearGradient id="f231ide" x1="7.018" x2="2.945" y1="24.721" y2="26.677" gradientUnits="userSpaceOnUse">
                <stop offset=".156" stop-color="#d64a38" />
                <stop offset="1" stop-color="#fb7425" />
            </linearGradient>
            <linearGradient id="f231idf" x1="6.818" x2="2.728" y1="22.929" y2="21.012" gradientUnits="userSpaceOnUse">
                <stop offset=".156" stop-color="#d64a38" />
                <stop offset="1" stop-color="#fb7425" />
            </linearGradient>
            <linearGradient id="f231idg" x1="16.047" x2="16.047" y1="27.523" y2="23.1" gradientUnits="userSpaceOnUse">
                <stop stop-color="#e61e27" />
                <stop offset="1" stop-color="#672a7a" />
            </linearGradient>
            <linearGradient id="f231idh" x1="20.688" x2="21.688" y1="19.68" y2="23.141" gradientUnits="userSpaceOnUse">
                <stop stop-color="#ec9611" />
                <stop offset="1" stop-color="#ea9d26" stop-opacity="0" />
            </linearGradient>
            <linearGradient id="f231idi" x1="22.899" x2="18.43" y1="18.211" y2="18.211" gradientUnits="userSpaceOnUse">
                <stop stop-color="#432a3d" />
                <stop offset=".568" stop-color="#684e61" />
                <stop offset=".766" stop-color="#43253d" />
            </linearGradient>
            <linearGradient id="f231idj" x1="20.321" x2="20.321" y1="18.055" y2="20.352" gradientUnits="userSpaceOnUse">
                <stop offset=".327" stop-color="#43253d" stop-opacity="0" />
                <stop offset="1" stop-color="#43253d" />
            </linearGradient>
            <linearGradient id="f231idk" x1="12.862" x2="13.862" y1="19.68" y2="23.141" gradientUnits="userSpaceOnUse">
                <stop stop-color="#e89311" />
                <stop offset="1" stop-color="#ea9d26" stop-opacity="0" />
            </linearGradient>
            <linearGradient id="f231idl" x1="14.957" x2="10.489" y1="18.211" y2="18.211" gradientUnits="userSpaceOnUse">
                <stop stop-color="#432a3d" />
                <stop offset=".568" stop-color="#684e61" />
                <stop offset=".766" stop-color="#43253d" />
            </linearGradient>
            <linearGradient id="f231idm" x1="12.379" x2="12.379" y1="18.055" y2="20.352" gradientUnits="userSpaceOnUse">
                <stop offset=".327" stop-color="#43253d" stop-opacity="0" />
                <stop offset="1" stop-color="#43253d" />
            </linearGradient>
            <linearGradient id="f231idn" x1="23.352" x2="22.956" y1="10.838" y2="22.889" gradientUnits="userSpaceOnUse">
                <stop offset=".548" stop-color="#ffdd65" />
                <stop offset="1" stop-color="#ffdd65" stop-opacity="0" />
            </linearGradient>
            <linearGradient id="f231ido" x1="26.54" x2="25.29" y1="15.508" y2="12.039" gradientUnits="userSpaceOnUse">
                <stop stop-color="#ef8a47" />
                <stop offset="1" stop-color="#ef8a47" stop-opacity="0" />
            </linearGradient>
            <linearGradient id="f231idp" x1="25.055" x2="25.055" y1="10.477" y2="12.82" gradientUnits="userSpaceOnUse">
                <stop offset=".432" stop-color="#ffe7a3" />
                <stop offset="1" stop-color="#ffdf83" stop-opacity="0" />
            </linearGradient>
            <filter id="f231idq" width="5.727" height="6.698" x="3.554" y="20.32" color-interpolation-filters="sRGB" filterUnits="userSpaceOnUse">
                <feFlood flood-opacity="0" result="BackgroundImageFix" />
                <feBlend in="SourceGraphic" in2="BackgroundImageFix" result="shape" />
                <feGaussianBlur result="effect1_foregroundBlur_28327_2053" stdDeviation=".75" />
            </filter>
            <filter id="f231idr" width="9.009" height="11.636" x="19.098" y="4.519" color-interpolation-filters="sRGB" filterUnits="userSpaceOnUse">
                <feFlood flood-opacity="0" result="BackgroundImageFix" />
                <feBlend in="SourceGraphic" in2="BackgroundImageFix" result="shape" />
                <feGaussianBlur result="effect1_foregroundBlur_28327_2053" stdDeviation=".5" />
            </filter>
            <filter id="f231ids" width="3.417" height="4.625" x="24.805" y="4.414" color-interpolation-filters="sRGB" filterUnits="userSpaceOnUse">
                <feFlood flood-opacity="0" result="BackgroundImageFix" />
                <feBlend in="SourceGraphic" in2="BackgroundImageFix" result="shape" />
                <feGaussianBlur result="effect1_foregroundBlur_28327_2053" stdDeviation=".5" />
            </filter>
            <filter id="f231idt" width="8.95" height="10.729" x="2.946" y="3.227" color-interpolation-filters="sRGB" filterUnits="userSpaceOnUse">
                <feFlood flood-opacity="0" result="BackgroundImageFix" />
                <feBlend in="SourceGraphic" in2="BackgroundImageFix" result="shape" />
                <feGaussianBlur result="effect1_foregroundBlur_28327_2053" stdDeviation="1" />
            </filter>
            <filter id="f231idu" width="3.661" height="3.024" x="13.748" y="20.056" color-interpolation-filters="sRGB" filterUnits="userSpaceOnUse">
                <feFlood flood-opacity="0" result="BackgroundImageFix" />
                <feBlend in="SourceGraphic" in2="BackgroundImageFix" result="shape" />
                <feGaussianBlur result="effect1_foregroundBlur_28327_2053" stdDeviation=".25" />
            </filter>
            <filter id="f231idv" width="2.723" height="1.748" x="14.909" y="19.867" color-interpolation-filters="sRGB" filterUnits="userSpaceOnUse">
                <feFlood flood-opacity="0" result="BackgroundImageFix" />
                <feBlend in="SourceGraphic" in2="BackgroundImageFix" result="shape" />
                <feGaussianBlur result="effect1_foregroundBlur_28327_2053" stdDeviation=".3" />
            </filter>
            <filter id="f231idw" width="6.005" height="4.013" x="23.685" y="19.98" color-interpolation-filters="sRGB" filterUnits="userSpaceOnUse">
                <feFlood flood-opacity="0" result="BackgroundImageFix" />
                <feBlend in="SourceGraphic" in2="BackgroundImageFix" result="shape" />
                <feGaussianBlur result="effect1_foregroundBlur_28327_2053" stdDeviation=".25" />
            </filter>
            <filter id="f231idx" width="4.127" height="3.566" x="23.685" y="23.823" color-interpolation-filters="sRGB" filterUnits="userSpaceOnUse">
                <feFlood flood-opacity="0" result="BackgroundImageFix" />
                <feBlend in="SourceGraphic" in2="BackgroundImageFix" result="shape" />
                <feGaussianBlur result="effect1_foregroundBlur_28327_2053" stdDeviation=".25" />
            </filter>
            <filter id="f231idy" width="5.105" height="3.113" x="24.916" y="20.248" color-interpolation-filters="sRGB" filterUnits="userSpaceOnUse">
                <feFlood flood-opacity="0" result="BackgroundImageFix" />
                <feBlend in="SourceGraphic" in2="BackgroundImageFix" result="shape" />
                <feGaussianBlur result="effect1_foregroundBlur_28327_2053" stdDeviation=".25" />
            </filter>
            <filter id="f231idz" width="1.363" height="1.337" x="28.925" y="19.912" color-interpolation-filters="sRGB" filterUnits="userSpaceOnUse">
                <feFlood flood-opacity="0" result="BackgroundImageFix" />
                <feBlend in="SourceGraphic" in2="BackgroundImageFix" result="shape" />
                <feGaussianBlur result="effect1_foregroundBlur_28327_2053" stdDeviation=".25" />
            </filter>
            <filter id="f231id10" width="5.102" height="3.119" x="24.848" y="23.899" color-interpolation-filters="sRGB" filterUnits="userSpaceOnUse">
                <feFlood flood-opacity="0" result="BackgroundImageFix" />
                <feBlend in="SourceGraphic" in2="BackgroundImageFix" result="shape" />
                <feGaussianBlur result="effect1_foregroundBlur_28327_2053" stdDeviation=".25" />
            </filter>
            <filter id="f231id11" width="1.36" height="1.34" x="28.86" y="25.698" color-interpolation-filters="sRGB" filterUnits="userSpaceOnUse">
                <feFlood flood-opacity="0" result="BackgroundImageFix" />
                <feBlend in="SourceGraphic" in2="BackgroundImageFix" result="shape" />
                <feGaussianBlur result="effect1_foregroundBlur_28327_2053" stdDeviation=".25" />
            </filter>
            <filter id="f231id12" width="5.102" height="3.119" x="2.142" y="23.911" color-interpolation-filters="sRGB" filterUnits="userSpaceOnUse">
                <feFlood flood-opacity="0" result="BackgroundImageFix" />
                <feBlend in="SourceGraphic" in2="BackgroundImageFix" result="shape" />
                <feGaussianBlur result="effect1_foregroundBlur_28327_2053" stdDeviation=".25" />
            </filter>
            <filter id="f231id13" width="1.364" height="1.336" x="5.964" y="23.837" color-interpolation-filters="sRGB" filterUnits="userSpaceOnUse">
                <feFlood flood-opacity="0" result="BackgroundImageFix" />
                <feBlend in="SourceGraphic" in2="BackgroundImageFix" result="shape" />
                <feGaussianBlur result="effect1_foregroundBlur_28327_2053" stdDeviation=".25" />
            </filter>
            <filter id="f231id14" width="5.114" height="3.094" x="2.21" y="20.055" color-interpolation-filters="sRGB" filterUnits="userSpaceOnUse">
                <feFlood flood-opacity="0" result="BackgroundImageFix" />
                <feBlend in="SourceGraphic" in2="BackgroundImageFix" result="shape" />
                <feGaussianBlur result="effect1_foregroundBlur_28327_2053" stdDeviation=".25" />
            </filter>
            <filter id="f231id15" width="1.336" height="1.364" x="6.083" y="21.823" color-interpolation-filters="sRGB" filterUnits="userSpaceOnUse">
                <feFlood flood-opacity="0" result="BackgroundImageFix" />
                <feBlend in="SourceGraphic" in2="BackgroundImageFix" result="shape" />
                <feGaussianBlur result="effect1_foregroundBlur_28327_2053" stdDeviation=".25" />
            </filter>
            <filter id="f231id16" width="2.551" height="3.941" x="18.156" y="17.028" color-interpolation-filters="sRGB" filterUnits="userSpaceOnUse">
                <feFlood flood-opacity="0" result="BackgroundImageFix" />
                <feBlend in="SourceGraphic" in2="BackgroundImageFix" result="shape" />
                <feGaussianBlur result="effect1_foregroundBlur_28327_2053" stdDeviation=".25" />
            </filter>
            <filter id="f231id17" width="2.551" height="3.941" x="10.33" y="17.028" color-interpolation-filters="sRGB" filterUnits="userSpaceOnUse">
                <feFlood flood-opacity="0" result="BackgroundImageFix" />
                <feBlend in="SourceGraphic" in2="BackgroundImageFix" result="shape" />
                <feGaussianBlur result="effect1_foregroundBlur_28327_2053" stdDeviation=".25" />
            </filter>
            <filter id="f231id18" width="1.472" height="1.472" x="19.471" y="17.028" color-interpolation-filters="sRGB" filterUnits="userSpaceOnUse">
                <feFlood flood-opacity="0" result="BackgroundImageFix" />
                <feBlend in="SourceGraphic" in2="BackgroundImageFix" result="shape" />
                <feGaussianBlur result="effect1_foregroundBlur_28327_2053" stdDeviation=".25" />
            </filter>
            <filter id="f231id19" width="1.472" height="1.472" x="11.529" y="17.028" color-interpolation-filters="sRGB" filterUnits="userSpaceOnUse">
                <feFlood flood-opacity="0" result="BackgroundImageFix" />
                <feBlend in="SourceGraphic" in2="BackgroundImageFix" result="shape" />
                <feGaussianBlur result="effect1_foregroundBlur_28327_2053" stdDeviation=".25" />
            </filter>
            <filter id="f231id1a" width="12.585" height="22.186" x="18.102" y="6.102" color-interpolation-filters="sRGB" filterUnits="userSpaceOnUse">
                <feFlood flood-opacity="0" result="BackgroundImageFix" />
                <feBlend in="SourceGraphic" in2="BackgroundImageFix" result="shape" />
                <feGaussianBlur result="effect1_foregroundBlur_28327_2053" stdDeviation="2" />
            </filter>
            <filter id="f231id1b" width="4.825" height="7.138" x="22.409" y="6.767" color-interpolation-filters="sRGB" filterUnits="userSpaceOnUse">
                <feFlood flood-opacity="0" result="BackgroundImageFix" />
                <feBlend in="SourceGraphic" in2="BackgroundImageFix" result="shape" />
                <feGaussianBlur result="effect1_foregroundBlur_28327_2053" stdDeviation=".3" />
            </filter>
            <filter id="f231id1c" width="4.531" height="4.734" x="22.727" y="9.289" color-interpolation-filters="sRGB" filterUnits="userSpaceOnUse">
                <feFlood flood-opacity="0" result="BackgroundImageFix" />
                <feBlend in="SourceGraphic" in2="BackgroundImageFix" result="shape" />
                <feGaussianBlur result="effect1_foregroundBlur_28327_2053" stdDeviation=".375" />
            </filter>
            <filter id="f231id1d" width="4.469" height="6.908" x="4.723" y="6.999" color-interpolation-filters="sRGB" filterUnits="userSpaceOnUse">
                <feFlood flood-opacity="0" result="BackgroundImageFix" />
                <feBlend in="SourceGraphic" in2="BackgroundImageFix" result="shape" />
                <feGaussianBlur result="effect1_foregroundBlur_28327_2053" stdDeviation=".25" />
            </filter>
            <filter id="f231id1e" width="1.15" height="6.337" x="4.648" y="7.152" color-interpolation-filters="sRGB" filterUnits="userSpaceOnUse">
                <feFlood flood-opacity="0" result="BackgroundImageFix" />
                <feBlend in="SourceGraphic" in2="BackgroundImageFix" result="shape" />
                <feGaussianBlur result="effect1_foregroundBlur_28327_2053" stdDeviation=".25" />
            </filter>
            <radialGradient id="f231id1f" cx="0" cy="0" r="1" gradientTransform="matrix(3.03126 4.46874 -8.83051 5.98995 22.164 4.29)" gradientUnits="userSpaceOnUse">
                <stop stop-color="#ffa720" />
                <stop offset=".921" stop-color="#ffa720" stop-opacity="0" />
            </radialGradient>
            <radialGradient id="f231id1g" cx="0" cy="0" r="1" gradientTransform="matrix(-1.89063 -.95312 .95876 -1.9018 16.446 21.18)" gradientUnits="userSpaceOnUse">
                <stop stop-color="#ea088b" />
                <stop offset="1" stop-color="#e61e27" />
            </radialGradient>
            <radialGradient id="f231id1h" cx="0" cy="0" r="1" gradientTransform="matrix(4.40625 6.46875 -7.7559 5.283 22.868 7.773)" gradientUnits="userSpaceOnUse">
                <stop stop-color="#ffdf70" />
                <stop offset="1" stop-color="#ffdf70" stop-opacity="0" />
            </radialGradient>
        </defs>
    </g>
</svg>