<svg xmlns="http://www.w3.org/2000/svg" width="1200" height="1250" viewBox="0 0 1200 1200">

    <defs>
        <filter id="shadow" x="-50%" y="-50%" width="200%" height="200%">
            <feDropShadow dx="10" dy="10" stdDeviation="10" flood-color="#000000" flood-opacity="0.5"/>
        </filter>
    </defs>
    <path filter="url(#shadow)" stroke="#e9b10a" stroke-width="24" fill="#ffc900" d="M600 0C350.178 0 147.656 202.521 147.656 452.344c0 83.547 16.353 169.837 63.281 232.031L600 1200l389.062-515.625c42.625-56.49 63.281-156.356 63.281-232.031C1052.344 202.521 849.822 0 600 0m0 261.987c105.116 0 190.356 85.241 190.356 190.356C790.356 557.46 705.116 642.7 600 642.7s-190.356-85.24-190.356-190.356S494.884 261.987 600 261.987" />
    <circle cx="600" cy="452.344" r="190.356" fill="#e9b10a" />

</svg>